# xmcd CD database file
#
# Track frame offsets:
#	150
#	18583
#	47662
#	64855
#	123307
#	136424
#	153669
#	190851
#	215479
#	244502
#	264934
#	297817
#
# Disc length: 4604 seconds
#
# Revision: 0
# Processed by: cddbd v1.5.2PL0 Copyright (c) Steve Scherf et al.
# Submitted via: CDex 1.51
#
DISCID=ac11fa0c
DTITLE=Gary Moore and The Midnight Blues Band - Live In Concert At The 1990 Montreux Festival
DYEAR=1990
DGENRE=Blues
TTITLE0=All Your Love (live)
TTITLE1=Midnight Blues (live)
TTITLE2=You Don't Love Me (live)
TTITLE3=Texas Strut (live)
TTITLE4=Moving On (live)
TTITLE5=Too Tired (featuring Albert Collins) (live)
TTITLE6=Cold Cold Feeling (featuring Albert Collins) (live)
TTITLE7=Further On Up The Road (featuring Albert Collins) (live)
TTITLE8=King Of The Blues (live)
TTITLE9=Stop Messin' Around (live)
TTITLE10=The Blues Is Alright (featuring Albert Collins) (live)
TTITLE11=The Messiah Will Come Again (live)
EXTD=YEAR: 1990
EXTT0=
EXTT1=
EXTT2=
EXTT3=
EXTT4=
EXTT5=
EXTT6=
EXTT7=
EXTT8=
EXTT9=
EXTT10=
EXTT11=
PLAYORDER=
